# xmcd
#
# Track frame offsets: 
#        150
#        20236
#        38736
#        59319
#        81391
#        114908
#        134872
#        149099
#        165402
#        183988
#        208041
#
# Disc length: 3086 seconds
#
# Revision: 0
# Processed by: cddbd v1.5.2PL0 Copyright (c) Steve Scherf et al.
# Submitted via: ExactAudioCopy v1.0b1
#
DISCID=a40c0c0b
DTITLE=Sons Of Bill - Sirens
DYEAR=2012
DGENRE=Americana
TTITLE0=Santa Ana Winds
TTITLE1=Find My Way Back Home
TTITLE2=Siren Song
TTITLE3=Angry Eyes
TTITLE4=Turn It Up
TTITLE5=The Tree
TTITLE6=Life In Shambles
TTITLE7=This Losing Fight
TTITLE8=Radio Can't Rewind
TTITLE9=Last Call At The Eschaton
TTITLE10=Virginia Calling
EXTD=
EXTT0=
EXTT1=
EXTT2=
EXTT3=
EXTT4=
EXTT5=
EXTT6=
EXTT7=
EXTT8=
EXTT9=
EXTT10=
PLAYORDER=
